<?xml version="1.0" encoding="UTF-8" standalone="no"?>
<!-- Created with Inkscape (http://www.inkscape.org/) -->

<svg
   xmlns:dc="http://purl.org/dc/elements/1.1/"
   xmlns:cc="http://creativecommons.org/ns#"
   xmlns:rdf="http://www.w3.org/1999/02/22-rdf-syntax-ns#"
   xmlns:svg="http://www.w3.org/2000/svg"
   xmlns="http://www.w3.org/2000/svg"
   xmlns:sodipodi="http://sodipodi.sourceforge.net/DTD/sodipodi-0.dtd"
   xmlns:inkscape="http://www.inkscape.org/namespaces/inkscape"
   width="66.236061mm"
   height="22.22253mm"
   viewBox="0 0 66.236061 22.22253"
   version="1.1"
   id="svg4665"
   inkscape:version="0.92.4 5da689c313, 2019-01-14"
   sodipodi:docname="jedcua_large.svg">
  <defs
     id="defs4659" />
  <sodipodi:namedview
     id="base"
     pagecolor="#ffffff"
     bordercolor="#666666"
     borderopacity="1.0"
     inkscape:pageopacity="0"
     inkscape:pageshadow="2"
     inkscape:zoom="2.8"
     inkscape:cx="87.871148"
     inkscape:cy="59.209871"
     inkscape:document-units="mm"
     inkscape:current-layer="layer1"
     showgrid="false"
     fit-margin-top="0"
     fit-margin-left="0"
     fit-margin-right="0"
     fit-margin-bottom="0"
     inkscape:pagecheckerboard="true"
     inkscape:window-width="1366"
     inkscape:window-height="694"
     inkscape:window-x="0"
     inkscape:window-y="0"
     inkscape:window-maximized="1" />
  <metadata
     id="metadata4662">
    <rdf:RDF>
      <cc:Work
         rdf:about="">
        <dc:format>image/svg+xml</dc:format>
        <dc:type
           rdf:resource="http://purl.org/dc/dcmitype/StillImage" />
        <dc:title />
      </cc:Work>
    </rdf:RDF>
  </metadata>
  <g
     inkscape:label="Layer 1"
     inkscape:groupmode="layer"
     id="layer1"
     transform="translate(-16.207865,-106.53903)">
    <path
       inkscape:connector-curvature="0"
       id="path71"
       style="font-style:normal;font-variant:normal;font-weight:normal;font-stretch:normal;font-size:17.30664635px;line-height:1.25;font-family:Pixellari;-inkscape-font-specification:Pixellari;letter-spacing:0px;word-spacing:0px;display:inline;fill:#ffffff;fill-opacity:1;stroke:none;stroke-width:0.43266615"
       d="m 26.876447,125.00588 h -1.081665 -1.081665 v -1.08167 -1.08166 h 1.081665 1.081665 v -1.08167 -1.08167 -1.08166 -1.08167 -1.08166 -1.08167 -1.08166 -1.08167 -1.08166 h 1.081666 1.081665 v 1.08166 1.08167 1.08166 1.08167 1.08166 1.08167 1.08166 1.08167 1.08167 1.08166 h -1.081665 v 1.08167 z m 1.081666,-12.97999 h -1.081666 v -1.08166 -1.08167 h 1.081666 1.081665 v 1.08167 1.08166 z"
       inkscape:export-filename="/home/jedcua/Pictures/jedcua_large.svg.png"
       inkscape:export-xdpi="96"
       inkscape:export-ydpi="96" />
    <path
       inkscape:connector-curvature="0"
       id="path73"
       style="font-style:normal;font-variant:normal;font-weight:normal;font-stretch:normal;font-size:17.30664635px;line-height:1.25;font-family:Pixellari;-inkscape-font-specification:Pixellari;letter-spacing:0px;word-spacing:0px;display:inline;fill:#ffffff;fill-opacity:1;stroke:none;stroke-width:0.43266615"
       d="M 35.529771,121.76088 H 34.448105 33.36644 32.284774 v -1.08167 h -1.081665 v -1.08166 -1.08167 -1.08166 -1.08167 -1.08166 -1.08167 h 1.081665 v -1.08166 h 1.081666 1.081665 1.081666 1.081665 v 1.08166 h 1.081665 v 1.08167 1.08166 1.08167 H 36.611436 35.529771 34.448105 33.36644 v 1.08166 1.08167 h 1.081665 1.081666 v -1.08167 h 1.081665 1.081665 v 1.08167 1.08166 h -1.081665 v 1.08167 z m -1.081666,-5.40833 h 1.081666 v -1.08166 H 34.448105 33.36644 v 1.08166 z"
       inkscape:export-filename="/home/jedcua/Pictures/jedcua_large.svg.png"
       inkscape:export-xdpi="96"
       inkscape:export-ydpi="96" />
    <path
       inkscape:connector-curvature="0"
       id="path75"
       style="font-style:normal;font-variant:normal;font-weight:normal;font-stretch:normal;font-size:17.30664635px;line-height:1.25;font-family:Pixellari;-inkscape-font-specification:Pixellari;letter-spacing:0px;word-spacing:0px;display:inline;fill:#ffffff;fill-opacity:1;stroke:none;stroke-width:0.43266615"
       d="M 46.346424,121.76088 H 45.26476 v -1.08167 h -1.081667 v 1.08167 h -1.081664 -1.081666 -1.081666 v -1.08167 h -1.081665 v -1.08166 -1.08167 -1.08166 -1.08167 -1.08166 -1.08167 h 1.081665 v -1.08166 h 1.081666 1.081666 1.081664 v 1.08166 h 1.081667 v -1.08166 -1.08167 -1.08166 -1.08167 h 1.081664 1.081667 v 1.08167 1.08166 1.08167 1.08166 1.08167 1.08166 1.08167 1.08166 1.08167 1.08166 1.08167 z m -3.244995,-2.16333 h 1.081664 v -1.08167 h 1.081667 v -1.08166 -1.08167 h -1.081667 v -1.08166 h -1.081664 -1.081666 v 1.08166 1.08167 1.08166 1.08167 z"
       inkscape:export-filename="/home/jedcua/Pictures/jedcua_large.svg.png"
       inkscape:export-xdpi="96"
       inkscape:export-ydpi="96" />
    <path
       inkscape:connector-curvature="0"
       id="path77"
       style="font-style:normal;font-variant:normal;font-weight:normal;font-stretch:normal;font-size:17.30664635px;line-height:1.25;font-family:Pixellari;-inkscape-font-specification:Pixellari;letter-spacing:0px;word-spacing:0px;display:inline;fill:#1abc9c;fill-opacity:1;stroke:none;stroke-width:0.43266615"
       d="m 53.918082,121.76088 h -1.081664 -1.081667 -1.081664 v -1.08167 h -1.081664 v -1.08166 -1.08167 -1.08166 -1.08167 -1.08166 -1.08167 h 1.081664 v -1.08166 h 1.081664 1.081667 1.081664 1.081667 v 1.08166 h 1.081665 v 1.08167 1.08166 h -1.081665 -1.081667 v -1.08166 h -1.081664 -1.081667 v 1.08166 1.08167 1.08166 1.08167 h 1.081667 1.081664 v -1.08167 h 1.081667 1.081665 v 1.08167 1.08166 h -1.081665 v 1.08167 z"
       inkscape:export-filename="/home/jedcua/Pictures/jedcua_large.svg.png"
       inkscape:export-xdpi="96"
       inkscape:export-ydpi="96" />
    <path
       inkscape:connector-curvature="0"
       id="path79"
       style="font-style:normal;font-variant:normal;font-weight:normal;font-stretch:normal;font-size:17.30664635px;line-height:1.25;font-family:Pixellari;-inkscape-font-specification:Pixellari;letter-spacing:0px;word-spacing:0px;display:inline;fill:#1abc9c;fill-opacity:1;stroke:none;stroke-width:0.43266615"
       d="M 63.653072,121.76088 H 62.571405 61.48974 60.408074 59.326409 v -1.08167 h -1.081667 v -1.08166 -1.08167 -1.08166 -1.08167 -1.08166 -1.08167 -1.08166 h 1.081667 1.081665 v 1.08166 1.08167 1.08166 1.08167 1.08166 1.08167 h 1.081666 1.081665 v -1.08167 -1.08166 -1.08167 -1.08166 -1.08167 -1.08166 h 1.081667 1.081664 v 1.08166 1.08167 1.08166 1.08167 1.08166 1.08167 1.08166 1.08167 z"
       inkscape:export-filename="/home/jedcua/Pictures/jedcua_large.svg.png"
       inkscape:export-xdpi="96"
       inkscape:export-ydpi="96" />
    <path
       sodipodi:nodetypes="ccccccccccccccccccccccccccccccccccccccccccc"
       inkscape:connector-curvature="0"
       id="path81"
       style="font-style:normal;font-variant:normal;font-weight:normal;font-stretch:normal;font-size:17.30664635px;line-height:1.25;font-family:Pixellari;-inkscape-font-specification:Pixellari;letter-spacing:0px;word-spacing:0px;display:inline;fill:#1abc9c;fill-opacity:1;stroke:none;stroke-width:0.43266615"
       d="m 72.306391,122.71046 v -0.94958 h -1.081664 -1.081664 -1.081667 -1.081665 v -1.08167 h -1.081666 v -1.08166 -1.08167 -1.08166 -1.08167 -1.08166 -1.08167 h 1.081666 v -1.08166 h 1.081665 1.081667 1.081664 1.081667 v 1.08166 h 1.081667 v 1.08167 1.08166 1.08167 1.08166 1.08167 1.08166 2.03125 z m -2.163328,-3.11291 h 1.081664 v -1.08167 -1.08166 -1.08167 -1.08166 h -1.081664 -1.081667 v 1.08166 1.08167 1.08166 1.08167 z"
       inkscape:export-filename="/home/jedcua/Pictures/jedcua_large.svg.png"
       inkscape:export-xdpi="96"
       inkscape:export-ydpi="96" />
    <g
       aria-label="}"
       transform="matrix(-1,0,0,1,-26.996038,-33.03511)"
       style="font-style:normal;font-variant:normal;font-weight:normal;font-stretch:normal;font-size:25.49464226px;line-height:1.25;font-family:orya;-inkscape-font-specification:orya;letter-spacing:0px;word-spacing:0px;display:inline;fill:#007e65;fill-opacity:1;stroke:none;stroke-width:0.63736606"
       id="text30"
       inkscape:export-filename="/home/jedcua/Pictures/jedcua_large.svg.png"
       inkscape:export-xdpi="96"
       inkscape:export-ydpi="96">
      <path
         d="m -46.304444,150.68541 h -1.295638 l -0.926042,-0.93891 -0.0062,-2.24334 v -3.72222 l 0.0062,-1.49333 -1.029441,-0.87786 h -2.426385 l 0.01169,-1.83561 h 3.444133 l 2.22168,1.83561 -0.0098,2.21823 V 147.35 l 0.0098,1.92878 0.421891,0.46772 h 2.678652 l 1e-6,0.93891 z"
         style="font-style:normal;font-variant:normal;font-weight:normal;font-stretch:normal;font-family:'Noto Sans';-inkscape-font-specification:'Noto Sans';fill:#007e65;fill-opacity:1;stroke-width:0.63736606"
         id="path34"
         inkscape:connector-curvature="0"
         sodipodi:nodetypes="cccccccccccccccccc" />
    </g>
    <g
       id="g59"
       style="font-style:normal;font-variant:normal;font-weight:normal;font-stretch:normal;font-size:25.49464226px;line-height:1.25;font-family:orya;-inkscape-font-specification:orya;letter-spacing:0px;word-spacing:0px;display:inline;fill:#007e65;fill-opacity:1;stroke:none;stroke-width:0.63736606"
       transform="rotate(180,-13.498019,134.14423)"
       aria-label="}"
       inkscape:export-filename="/home/jedcua/Pictures/jedcua_large.svg.png"
       inkscape:export-xdpi="96"
       inkscape:export-ydpi="96">
      <path
         sodipodi:nodetypes="cccccccccccccccccc"
         inkscape:connector-curvature="0"
         id="path57"
         style="font-style:normal;font-variant:normal;font-weight:normal;font-stretch:normal;font-family:'Noto Sans';-inkscape-font-specification:'Noto Sans';fill:#007e65;fill-opacity:1;stroke-width:0.63736606"
         d="m -46.304444,150.68541 h -1.295638 l -0.926042,-0.93891 -0.0062,-2.24334 v -3.72222 l 0.0062,-1.49333 -1.029441,-0.87786 h -2.426385 l 0.01169,-1.83561 h 3.444133 l 2.22168,1.83561 -0.0098,2.21823 V 147.35 l 0.0098,1.92878 0.421891,0.46772 h 2.678652 l 1e-6,0.93891 z" />
    </g>
    <g
       id="g63"
       style="font-style:normal;font-variant:normal;font-weight:normal;font-stretch:normal;font-size:25.49464226px;line-height:1.25;font-family:orya;-inkscape-font-specification:orya;letter-spacing:0px;word-spacing:0px;display:inline;fill:#007e65;fill-opacity:1;stroke:none;stroke-width:0.63736606"
       transform="translate(125.64783,-33.03511)"
       aria-label="}"
       inkscape:export-filename="/home/jedcua/Pictures/jedcua_large.svg.png"
       inkscape:export-xdpi="96"
       inkscape:export-ydpi="96">
      <path
         sodipodi:nodetypes="cccccccccccccccccc"
         inkscape:connector-curvature="0"
         id="path61"
         style="font-style:normal;font-variant:normal;font-weight:normal;font-stretch:normal;font-family:'Noto Sans';-inkscape-font-specification:'Noto Sans';fill:#007e65;fill-opacity:1;stroke-width:0.63736606"
         d="m -46.304444,150.68541 h -1.295638 l -0.926042,-0.93891 -0.0062,-2.24334 v -3.72222 l 0.0062,-1.49333 -1.029441,-0.87786 h -2.426385 l 0.01169,-1.83561 h 3.444133 l 2.22168,1.83561 -0.0098,2.21823 V 147.35 l 0.0098,1.92878 0.421891,0.46772 h 2.678652 l 1e-6,0.93891 z" />
    </g>
    <g
       aria-label="}"
       transform="matrix(1,0,0,-1,125.64783,268.28845)"
       style="font-style:normal;font-variant:normal;font-weight:normal;font-stretch:normal;font-size:25.49464226px;line-height:1.25;font-family:orya;-inkscape-font-specification:orya;letter-spacing:0px;word-spacing:0px;display:inline;fill:#007e65;fill-opacity:1;stroke:none;stroke-width:0.63736606"
       id="g67"
       inkscape:export-filename="/home/jedcua/Pictures/jedcua_large.svg.png"
       inkscape:export-xdpi="96"
       inkscape:export-ydpi="96">
      <path
         d="m -46.304444,150.68541 h -1.295638 l -0.926042,-0.93891 -0.0062,-2.24334 v -3.72222 l 0.0062,-1.49333 -1.029441,-0.87786 h -2.426385 l 0.01169,-1.83561 h 3.444133 l 2.22168,1.83561 -0.0098,2.21823 V 147.35 l 0.0098,1.92878 0.421891,0.46772 h 2.678652 l 1e-6,0.93891 z"
         style="font-style:normal;font-variant:normal;font-weight:normal;font-stretch:normal;font-family:'Noto Sans';-inkscape-font-specification:'Noto Sans';fill:#007e65;fill-opacity:1;stroke-width:0.63736606"
         id="path65"
         inkscape:connector-curvature="0"
         sodipodi:nodetypes="cccccccccccccccccc" />
    </g>
  </g>
</svg>
